<svg width="283pt" height="50pt" viewBox="0 0 283 50" xmlns="http://www.w3.org/2000/svg"><g stroke-linecap="round" fill-rule="evenodd" fill="#DEBA24"><path d="M 210.25 0 L 224.7 0 L 231.9 12.5 L 210.25 50 L 195.85 25 L 181.4 50 L 159.75 12.5 L 166.95 0 L 181.4 25 L 188.6 12.5 L 181.4 0 L 195.85 0 L 210.25 25 L 217.5 12.5 L 210.25 0 Z M 86.6 50 L 72.15 25 L 86.6 25 L 93.8 12.5 L 79.35 12.5 L 64.95 37.5 L 72.15 50 L 57.7 50 L 50.5 37.5 L 72.15 0 L 101 0 L 108.25 12.5 L 93.8 37.5 L 101 50 L 86.6 50 Z M 275.2 0 L 282.45 12.5 L 260.8 50 L 246.35 25 L 239.15 37.5 L 246.35 50 L 231.9 50 L 224.7 37.5 L 246.35 0 L 260.8 25 L 275.2 0 Z M 50.5 0 L 57.75 12.5 L 28.85 12.5 L 14.45 37.5 L 43.3 37.5 L 36.1 50 L 7.2 50 L 0 37.5 L 21.65 0 L 50.5 0 Z M 122.65 0 L 151.5 0 L 158.75 12.5 L 137.1 50 L 108.2 50 L 101 37.5 L 122.65 0 Z M 115.45 37.5 L 129.85 37.5 L 144.3 12.5 L 129.85 12.5 L 115.45 37.5 Z" vector-effect="non-scaling-stroke"/></g></svg>